<svg xmlns="http://www.w3.org/2000/svg" width="279.98" height="52" viewBox="0 0 279.98 52" role="img" aria-label="Join the waitlist">
  <title>Join the waitlist</title>
  <rect x="0.5" y="0.5" width="278.98" height="51" rx="8" fill="#f7f6f2" stroke="#d6d3c8"/>
  <!-- logo mark (mirrors static/favicon.svg) -->
  <g stroke="#16150f" stroke-width="2.02" stroke-linecap="round" fill="none">
    <line x1="35.5" y1="18.43" x2="27.43" y2="33.57"/>
    <line x1="35.5" y1="18.43" x2="43.58" y2="33.57"/>
    <line x1="27.43" y1="33.57" x2="43.58" y2="33.57"/>
  </g>
  <circle cx="35.5" cy="18.43" r="3.43" fill="#7a201a"/>
  <circle cx="27.43" cy="33.57" r="3.43" fill="#f7f6f2" stroke="#16150f" stroke-width="2.02"/>
  <circle cx="43.58" cy="33.57" r="3.43" fill="#f7f6f2" stroke="#16150f" stroke-width="2.02"/>
  <!-- hairline divider -->
  <line x1="64.01" y1="13" x2="64.01" y2="39" stroke="#d6d3c8"/>
  <!-- label (outlined Archivo, no font dependency) -->
  <path d="M87.06102188110353 32.21Q85.63705871582032 32.21 84.62491539001465 31.785816192626953Q83.61277206420898 31.361632385253905 83.07940444946288 30.503375091552734Q82.5460368347168 29.64511779785156 82.5460368347168 28.320831146240234V27.86544128417969H85.36731582641602V28.31360321044922Q85.36731582641602 29.122787017822265 85.77990043640136 29.505125274658205Q86.19248504638672 29.88746353149414 87.01042633056642 29.88746353149414Q87.80782348632813 29.88746353149414 88.21527206420899 29.3767244720459Q88.62272064208985 28.865985412597656 88.62272064208985 27.851360321044922V19.980544128417968H91.56573486328125V27.858588256835937Q91.56573486328125 29.33695587158203 91.03236724853517 30.303069839477537Q90.49899963378907 31.269183807373047 89.4919923400879 31.739591903686524Q88.48498504638673 32.21 87.06102188110353 32.21ZM98.52074981689454 32.21Q96.98683807373047 32.21 95.91040061950685 31.686522064208987Q94.83396316528321 31.16304412841797 94.26863967895508 30.09193016052246Q93.70331619262696 29.020816192626953 93.70331619262696 27.390272064208986Q93.70331619262696 25.742227935791014 94.26863967895508 24.679863967895507Q94.83396316528321 23.6175 95.91040061950685 23.094022064208986Q96.98683807373047 22.570544128417968 98.52074981689454 22.570544128417968Q100.06493362426758 22.570544128417968 101.13984901428223 23.094022064208986Q102.21476440429689 23.6175 102.78008789062501 24.679863967895507Q103.34541137695314 25.742227935791014 103.34541137695314 27.390272064208986Q103.34541137695314 29.020816192626953 102.78008789062501 30.09193016052246Q102.21476440429689 31.16304412841797 101.13984901428223 31.686522064208987Q100.06493362426758 32.21 98.52074981689454 32.21ZM98.52074981689454 30.207022247314452Q99.26678665161133 30.207022247314452 99.72882713317871 29.919411926269532Q100.1908676147461 29.63180160522461 100.40181983947754 29.065900802612305Q100.61277206420898 28.5 100.61277206420898 27.671786651611328V27.115985412597656Q100.61277206420898 26.287772064208983 100.40181983947754 25.71825729370117Q100.1908676147461 25.14874252319336 99.72882713317871 24.86113220214844Q99.26678665161133 24.573521881103517 98.52074981689454 24.573521881103517Q97.77471298217773 24.573521881103517 97.31628646850587 24.86113220214844Q96.85785995483398 25.14874252319336 96.64690773010254 25.71825729370117Q96.4359555053711 26.287772064208983 96.4359555053711 27.115985412597656V27.671786651611328Q96.4359555053711 28.5 96.64690773010254 29.065900802612305Q96.85785995483398 29.63180160522461 97.31628646850587 29.919411926269532Q97.77471298217773 30.207022247314452 98.52074981689454 30.207022247314452ZM105.29886032104493 21.500374908447263V19.333044128417967H107.99041137695313V21.500374908447263ZM105.29886032104493 32.0V22.78054412841797H107.99041137695313V32.0ZM110.39886032104492 32.0V22.78054412841797H112.62476440429687L112.82144821166992 24.077823486328125H112.94394821166992Q113.28063201904297 23.607227935791016 113.73467979431152 23.269022064208983Q114.18872756958008 22.930816192626953 114.75804740905761 22.75068016052246Q115.32736724853515 22.570544128417968 115.97791137695313 22.570544128417968Q116.94687454223633 22.570544128417968 117.63508041381836 22.925297775268554Q118.32328628540039 23.28005142211914 118.69383041381835 24.008963165283202Q119.06437454223632 24.737874908447264 119.06437454223632 25.8814631652832V32.0H116.36255142211914V26.280919036865235Q116.36255142211914 25.870426330566406 116.26325729370117 25.582816009521487Q116.1639631652832 25.295205688476564 115.97773887634278 25.104797592163088Q115.79151458740235 24.91438949584961 115.51626823425293 24.823275527954102Q115.24102188110352 24.732161560058593 114.8921615600586 24.732161560058593Q114.37248504638671 24.732161560058593 113.96655853271484 24.979635848999024Q113.56063201904297 25.22711013793945 113.32552169799806 25.648444747924806Q113.09041137695313 26.069779357910157 113.09041137695313 26.616088256835937V32.0ZM128.02073486328126 32.21Q127.12709518432618 32.21 126.53951805114747 31.91934555053711Q125.95194091796876 31.628691101074217 125.66756965637208 31.09132713317871Q125.38319839477539 30.553963165283204 125.38319839477539 29.83494857788086V24.783521881103514H124.20119110107422V22.78054412841797H125.47183807373047L126.0086247253418 20.114080963134764H128.07474945068358V22.78054412841797H129.81903610229492V24.783521881103514H128.07474945068358V29.25632385253906Q128.07474945068358 29.717787017822264 128.2672494506836 29.962404632568358Q128.4597494506836 30.207022247314452 128.93148468017577 30.207022247314452H129.81903610229492V31.91554412841797Q129.60066848754883 31.992772064208985 129.2818670654297 32.06125Q128.96306564331056 32.12972793579102 128.62885612487793 32.16986396789551Q128.29464660644533 32.21 128.02073486328126 32.21ZM131.6138603210449 32.0V19.333044128417967H134.30541137695312V23.79440444946289H134.42791137695312Q134.7254113769531 23.419676513671874 135.14959518432616 23.1505184173584Q135.5737789916992 22.881360321044923 136.09364295959472 22.725952224731444Q136.61350692749022 22.570544128417968 137.1929113769531 22.570544128417968Q138.16187454223632 22.570544128417968 138.85008041381835 22.925297775268554Q139.53828628540037 23.28005142211914 139.90883041381835 24.008963165283202Q140.27937454223633 24.737874908447264 140.27937454223633 25.8814631652832V32.0H137.57755142211914V26.280919036865235Q137.57755142211914 25.870426330566406 137.47825729370118 25.582816009521487Q137.37896316528318 25.295205688476564 137.19273887634276 25.104797592163088Q137.00651458740234 24.91438949584961 136.73126823425292 24.823275527954102Q136.4560218811035 24.732161560058593 136.1071615600586 24.732161560058593Q135.58748504638672 24.732161560058593 135.18155853271483 24.979635848999024Q134.77563201904294 25.22711013793945 134.54052169799803 25.648444747924806Q134.30541137695312 26.069779357910157 134.30541137695312 26.616088256835937V32.0ZM147.01030853271482 32.21Q145.46080123901365 32.21 144.38322410583493 31.69375Q143.30564697265623 31.1775 142.74698158264158 30.11Q142.18831619262693 29.0425 142.18831619262693 27.390272064208986Q142.18831619262693 25.742227935791014 142.74336761474606 24.679863967895507Q143.2984190368652 23.6175 144.35431236267087 23.094022064208986Q145.41020568847654 22.570544128417968 146.92357330322264 22.570544128417968Q148.39090408325194 22.570544128417968 149.40057312011717 23.076522064208984Q150.4102421569824 23.5825 150.93029357910154 24.62945587158203Q151.45034500122068 25.67641174316406 151.45034500122068 27.328639678955078V27.944183807373047H144.9106834411621Q144.93122756958005 28.707720642089843 145.1406577301025 29.239761123657225Q145.35008789062496 29.77180160522461 145.8024261474609 30.038867797851562Q146.25476440429685 30.305933990478515 146.99166885375973 30.305933990478515Q147.4230805969238 30.305933990478515 147.7622386932373 30.200933990478514Q148.10139678955076 30.095933990478514 148.3385990142822 29.891639862060543Q148.57580123901366 29.687345733642577 148.6992534637451 29.390985412597658Q148.82270568847653 29.094625091552736 148.82270568847653 28.722176513671876H151.45034500122068Q151.45034500122068 29.575492706298828 151.14048103332516 30.230220642089844Q150.83061706542966 30.88494857788086 150.24684135437008 31.323018417358398Q149.66306564331052 31.761088256835937 148.84494438171384 31.98554412841797Q148.02682312011717 32.21 147.01030853271482 32.21ZM144.93845550537108 26.381360321044923H148.69297775268552Q148.69297775268552 25.890595550537107 148.57256965637202 25.53507713317871Q148.45216156005856 25.179558715820313 148.2303674316406 24.942356491088866Q148.00857330322262 24.70515426635742 147.69414314270017 24.59501823425293Q147.37971298217772 24.484882202148437 146.98139678955076 24.484882202148437Q146.34226440429686 24.484882202148437 145.91104011535643 24.697926330566403Q145.479815826416 24.910970458984373 145.24927169799804 25.329260940551755Q145.01872756958005 25.74755142211914 144.93845550537108 26.381360321044923ZM158.9135218811035 32.0 155.90581619262693 22.78054412841797H158.7541024780273L159.8003085327148 26.882052154541014Q159.89085266113278 27.202000732421872 159.97892250061034 27.614390411376952Q160.06699234008786 28.026780090332032 160.15201805114742 28.397699127197264Q160.237043762207 28.7686181640625 160.2906834411621 28.980132751464843H160.40291137695309Q160.49459518432616 28.614537200927735 160.58266502380368 28.218125457763673Q160.6707348632812 27.82171371459961 160.75728263854978 27.46125419616699Q160.84383041381832 27.100794677734374 160.8974700927734 26.85846389770508L161.906771697998 22.78054412841797H164.68354339599605L165.7164332580566 26.875963897705077Q165.7864332580566 27.120963897705078 165.86936706542966 27.502537384033204Q165.9523008728027 27.884110870361326 166.04759864807124 28.2786181640625Q166.1428964233398 28.67312545776367 166.2068081665039 28.980132751464843H166.3190361022949Q166.37571990966794 28.712309265136717 166.46226768493648 28.342529907226563Q166.54881546020505 27.972750549316405 166.6404992675781 27.589085159301757Q166.73218307495114 27.205419769287108 166.79913894653316 26.90678009033203L167.84952880859373 22.78054412841797H170.45357986450193L167.44891830444334 32.0H164.7216024780273L163.7438818359375 28.13513931274414Q163.66665390014646 27.81709518432617 163.56678993225097 27.41516502380371Q163.46692596435545 27.013234863281248 163.38094802856443 26.6185326385498Q163.2949700927734 26.22383041381836 163.2352421569824 25.94078628540039H163.14469802856442Q163.12301422119137 26.113881835937498 163.05244438171383 26.443337707519532Q162.9818745422363 26.772793579101563 162.8820105743408 27.201925964355468Q162.78214660644528 27.631058349609376 162.64633041381833 28.127911376953126L161.6408377075195 32.0ZM174.3031469726562 32.21Q173.78081619262693 32.21 173.24231254577634 32.09929412841797Q172.70380889892576 31.98858825683594 172.25090080261228 31.7080184173584Q171.7979927062988 31.42744857788086 171.52579048156736 30.918426513671875Q171.2535882568359 30.40940444946289 171.2535882568359 29.62Q171.2535882568359 28.638860321044923 171.67720222473142 28.0067684173584Q172.10081619262692 27.374676513671876 172.88736396789548 27.019540481567383Q173.67391174316404 26.66440444946289 174.78325729370113 26.522882385253908Q175.89260284423824 26.381360321044923 177.2610218811035 26.381360321044923V25.751735229492187Q177.2610218811035 25.356463165283202 177.11322410583495 25.073988876342774Q176.96542633056637 24.791514587402343 176.6525182342529 24.6330623626709Q176.33961013793942 24.47461013793945 175.80052917480467 24.47461013793945Q175.29758789062498 24.47461013793945 174.95177169799803 24.595970458984375Q174.60595550537107 24.717330780029297 174.44065773010252 24.923146972656248Q174.27535995483396 25.128963165283203 174.27535995483396 25.402874908447266V25.57559555053711H171.64658096313474Q171.62908096313473 25.495323486328125 171.62908096313473 25.422279357910156Q171.62908096313473 25.349235229492187 171.62908096313473 25.248419036865233Q171.62908096313473 24.432007293701172 172.1341066741943 23.82920951843262Q172.63913238525387 23.226411743164064 173.5767095184326 22.898477935791014Q174.51428665161131 22.570544128417968 175.8119409179687 22.570544128417968Q177.07916885375974 22.570544128417968 178.00495185852049 22.891632385253907Q178.93073486328123 23.21272064208984 179.44165390014646 23.86383460998535Q179.9525729370117 24.51494857788086 179.9525729370117 25.529183807373045V29.565610504150392Q179.9525729370117 29.876426696777344 180.12338912963867 30.0417244720459Q180.2942053222656 30.207022247314452 180.54338912963865 30.207022247314452H181.13230087280272V31.901088256835937Q180.9428450012207 31.992772064208985 180.54890754699704 32.09625Q180.1549700927734 32.19972793579102 179.59991867065426 32.19972793579102Q179.04372756958006 32.19972793579102 178.6163121795654 32.05459190368653Q178.18889678955077 31.909455871582033 177.9113710784912 31.636683807373046Q177.6338453674316 31.363911743164063 177.5216174316406 30.993367614746095H177.40938949584958Q177.0829777526855 31.34641174316406 176.64281600952145 31.624319839477536Q176.2026542663574 31.902227935791014 175.62610649108885 32.056113967895506Q175.0495587158203 32.21 174.3031469726562 32.21ZM175.26867614746092 30.286529541015625Q175.71416885375973 30.286529541015625 176.08205123901365 30.15432731628418Q176.44993362426754 30.022125091552734 176.71034172058103 29.789106674194336Q176.9707498168945 29.556088256835938 177.115885848999 29.222253646850586Q177.2610218811035 28.888419036865233 177.2610218811035 28.495426330566406V27.923639678955077Q176.26961013793942 27.923639678955077 175.5281394958496 28.06059555053711Q174.78666885375975 28.19755142211914 174.3813121795654 28.501139678955077Q173.97595550537108 28.804727935791014 173.97595550537108 29.308808898925783Q173.97595550537108 29.638264770507813 174.1355474090576 29.856444931030275Q174.2951393127441 30.074625091552733 174.5869334411621 30.18057731628418Q174.87872756958006 30.286529541015625 175.26867614746092 30.286529541015625ZM182.52386032104488 21.500374908447263V19.333044128417967H185.21541137695309V21.500374908447263ZM182.52386032104488 32.0V22.78054412841797H185.21541137695309V32.0ZM190.6707348632812 32.21Q189.77709518432613 32.21 189.18951805114742 31.91934555053711Q188.6019409179687 31.628691101074217 188.31756965637203 31.09132713317871Q188.03319839477535 30.553963165283204 188.03319839477535 29.83494857788086V24.783521881103514H186.85119110107416V22.78054412841797H188.12183807373043L188.65862472534175 20.114080963134764H190.72474945068353V22.78054412841797H192.46903610229487V24.783521881103514H190.72474945068353V29.25632385253906Q190.72474945068353 29.717787017822264 190.91724945068353 29.962404632568358Q191.10974945068355 30.207022247314452 191.58148468017572 30.207022247314452H192.46903610229487V31.91554412841797Q192.25066848754878 31.992772064208985 191.93186706542963 32.06125Q191.6130656433105 32.12972793579102 191.2788561248779 32.16986396789551Q190.94464660644527 32.21 190.6707348632812 32.21ZM194.2638603210449 32.0V19.333044128417967H196.9554113769531V32.0ZM199.36386032104488 21.500374908447263V19.333044128417967H202.0554113769531V21.500374908447263ZM199.36386032104488 32.0V22.78054412841797H202.0554113769531V32.0ZM208.3332498168945 32.21Q207.40080123901362 32.21 206.61577552795404 32.012933807373045Q205.8307498168945 31.815867614746093 205.24735649108882 31.441709518432617Q204.66396316528315 31.06755142211914 204.3415477752685 30.5332315826416Q204.01913238525387 29.99891174316406 204.01913238525387 29.30690444946289Q204.01913238525387 29.233860321044922 204.02426841735837 29.16747428894043Q204.02940444946285 29.101088256835936 204.03663238525385 29.051632385253907H206.60644821166989Q206.59922027587885 29.09386032104492 206.59922027587885 29.136088256835937Q206.59922027587885 29.17831619262695 206.59922027587885 29.21331619262695Q206.61672027587886 29.62076477050781 206.8641945648193 29.876989059448242Q207.1116688537597 30.133213348388672 207.5160733032226 30.248485412597656Q207.9204777526855 30.36375747680664 208.3846101379394 30.36375747680664Q208.7528749084472 30.36375747680664 209.13521316528315 30.292805252075194Q209.51755142211908 30.221853027343748 209.78518745422357 30.035628738403318Q210.05282348632807 29.84940444946289 210.05282348632807 29.506632385253905Q210.05282348632807 29.116683807373047 209.7208933258056 28.91143745422363Q209.38896316528314 28.706191101074218 208.8491249084472 28.573988876342774Q208.30928665161127 28.441786651611327 207.68347045898432 28.29569839477539Q207.07705871582027 28.159882202148438 206.4670330047607 27.97822410583496Q205.85700729370112 27.796566009521484 205.35350364685053 27.495452041625974Q204.84999999999997 27.194338073730467 204.53956619262692 26.707382202148438Q204.22913238525385 26.220426330566404 204.22913238525385 25.477058715820313Q204.22913238525385 24.70059555053711 204.5591580963134 24.149727935791013Q204.889183807373 23.59886032104492 205.4683933258056 23.250382385253907Q206.04760284423824 22.90190444946289 206.81208442687984 22.73774635314941Q207.57656600952143 22.573588256835937 208.4454777526855 22.573588256835937Q209.25352188110347 22.573588256835937 209.97063949584958 22.73774635314941Q210.68775711059567 22.90190444946289 211.2479445648193 23.22565444946289Q211.80813201904292 23.54940444946289 212.12636360168452 24.038452224731444Q212.44459518432612 24.5275 212.44459518432612 25.16700729370117Q212.44459518432612 25.260595550537108 212.43945915222162 25.36502571105957Q212.43432312011714 25.46945587158203 212.42709518432613 25.494183807373048H209.88200729370112V25.36445587158203Q209.88200729370112 25.060867614746094 209.68798522949214 24.853529357910155Q209.49396316528316 24.64619110107422 209.15385284423826 24.531488876342774Q208.81374252319333 24.41678665161133 208.36216156005855 24.41678665161133Q208.07226440429682 24.41678665161133 207.80063201904292 24.461488876342774Q207.52899963378903 24.50619110107422 207.320521697998 24.59977935791016Q207.11204376220698 24.693367614746094 206.98897392272943 24.836411743164064Q206.8659040832519 24.97945587158203 206.8659040832519 25.18641174316406Q206.8659040832519 25.46831619262695 207.10310630798335 25.635518417358398Q207.3403085327148 25.802720642089845 207.74319091796872 25.91742286682129Q208.1460733032226 26.032125091552736 208.6277056884765 26.160713348388672Q209.27216156005855 26.314029541015625 209.98052917480464 26.468867797851562Q210.68889678955074 26.6237060546875 211.30824234008784 26.900092086791993Q211.92758789062495 27.176478118896483 212.31372756958 27.702047958374024Q212.6998672485351 28.22761779785156 212.6998672485351 29.1326692199707Q212.6998672485351 29.995492706298826 212.36109153747555 30.59315444946289Q212.02231582641596 31.190816192626954 211.42408424377436 31.542908096313475Q210.82585266113276 31.895 210.03150711059567 32.0525Q209.23716156005855 32.21 208.3332498168945 32.21ZM217.68573486328123 32.21Q216.79209518432614 32.21 216.20451805114743 31.91934555053711Q215.61694091796872 31.628691101074217 215.33256965637204 31.09132713317871Q215.04819839477537 30.553963165283204 215.04819839477537 29.83494857788086V24.783521881103514H213.86619110107418V22.78054412841797H215.13683807373044L215.67362472534177 20.114080963134764H217.73974945068355V22.78054412841797H219.48403610229488V24.783521881103514H217.73974945068355V29.25632385253906Q217.73974945068355 29.717787017822264 217.93224945068357 29.962404632568358Q218.12474945068357 30.207022247314452 218.59648468017573 30.207022247314452H219.48403610229488V31.91554412841797Q219.2656684875488 31.992772064208985 218.94686706542967 32.06125Q218.62806564331052 32.12972793579102 218.2938561248779 32.16986396789551Q217.9596466064453 32.21 217.68573486328123 32.21Z" fill="#16150f"/>
  <!-- arrow -->
  <g stroke="#7a201a" stroke-width="2.2" fill="none" stroke-linecap="round" stroke-linejoin="round">
    <line x1="237.98" y1="26.0" x2="255.98" y2="26.0"/>
    <polyline points="249.38,21.2 255.98,26.0 249.38,30.8"/>
  </g>
</svg>
